<svg width="32" height="33" viewBox="0 0 32 33" fill="none" xmlns="http://www.w3.org/2000/svg">
<path d="M5.70837 8.52075H26.968C27.3987 8.52077 27.8247 8.61715 28.2185 8.80368C28.6122 8.9902 28.965 9.26274 29.254 9.60372C29.5431 9.9447 29.762 10.3466 29.8966 10.7834C30.0313 11.2202 30.0787 11.6823 30.0359 12.1399L29.1109 22.0148C29.0348 22.827 28.6787 23.5801 28.1118 24.1278C27.5449 24.6755 26.8076 24.9789 26.043 24.9789H11.32C10.607 24.9792 9.91586 24.7156 9.36435 24.2331C8.81285 23.7506 8.43505 23.0789 8.29529 22.3324L5.70837 8.52075Z" fill="#FF8C42" stroke="#FF8C42" stroke-width="2" stroke-linejoin="round"/>
<path d="M5.70837 8.52075L4.45962 3.18338C4.37611 2.82748 4.18359 2.51157 3.91265 2.28585C3.64171 2.06012 3.30789 1.93751 2.96421 1.9375H1.08337" stroke="#FF8C42" stroke-width="2" stroke-linecap="round" stroke-linejoin="round"/>
<path d="M10.3334 31.5621H13.4167" stroke="#FF8C42" stroke-width="2" stroke-linecap="round" stroke-linejoin="round"/>
<path d="M22.6667 31.5621H25.7501" stroke="#FF8C42" stroke-width="2" stroke-linecap="round" stroke-linejoin="round"/>
</svg>
