<svg width="31" height="31" viewBox="0 0 31 31" fill="none" xmlns="http://www.w3.org/2000/svg">
<ellipse cx="15.5" cy="15.5002" rx="15.4999" ry="15.5001" fill="#FF8C42"/>
<path d="M15.4999 19.6673C16.6049 19.6673 17.6647 19.2283 18.4461 18.4469C19.2275 17.6654 19.6665 16.6056 19.6665 15.5005C19.6665 14.3954 19.2275 13.3356 18.4461 12.5542C17.6647 11.7727 16.6049 11.3337 15.4999 11.3337C14.3948 11.3337 13.335 11.7727 12.5536 12.5542C11.7722 13.3356 11.3332 14.3954 11.3332 15.5005C11.3332 16.6056 11.7722 17.6654 12.5536 18.4469C13.335 19.2283 14.3948 19.6673 15.4999 19.6673V19.6673Z" stroke="black" stroke-width="1.5625" stroke-linecap="round" stroke-linejoin="round"/>
<path d="M6.12488 19.667V11.3335C6.12488 9.95209 6.67361 8.6273 7.65036 7.65052C8.62712 6.67375 9.95188 6.125 11.3332 6.125H19.6665C21.0479 6.125 22.3726 6.67375 23.3494 7.65052C24.3261 8.6273 24.8749 9.95209 24.8749 11.3335V19.667C24.8749 21.0484 24.3261 22.3732 23.3494 23.3499C22.3726 24.3267 21.0479 24.8755 19.6665 24.8755H11.3332C9.95188 24.8755 8.62712 24.3267 7.65036 23.3499C6.67361 22.3732 6.12488 21.0484 6.12488 19.667Z" stroke="black" stroke-width="1.5625"/>
<path d="M21.2291 9.78293L21.2391 9.76953" stroke="black" stroke-width="1.5625" stroke-linecap="round" stroke-linejoin="round"/>
</svg>
