<svg width="120" height="100" viewBox="0 0 120 100" fill="none" xmlns="http://www.w3.org/2000/svg">
<g clip-path="url(#clip0_275_28)">
<path d="M59.4241 100.219C85.9751 100.318 107.582 78.012 107.685 50.3979C107.788 22.7839 86.348 0.318283 59.797 0.219613C33.246 0.120943 11.6387 22.4266 11.5357 50.0406C11.4328 77.6546 32.8731 100.12 59.4241 100.219Z" fill="#679436"/>
<path d="M59.833 28.041C59.9506 27.9197 60.1455 27.9205 60.2622 28.0426L83.0305 51.882C83.2114 52.0715 83.0763 52.385 82.814 52.3841L37.1002 52.2142C36.8381 52.2132 36.7052 51.8987 36.8876 51.7105L59.833 28.041Z" fill="white"/>
<path d="M78.4191 51.6201L40.7585 51.4801L40.6612 77.5924L78.3218 77.7323L78.4191 51.6201Z" fill="white"/>
<path d="M73.2249 59.0231L59.6252 58.9726L59.6131 62.2366L73.2128 62.2872L73.2249 59.0231Z" fill="#29B327"/>
<path d="M119.499 58.7073L0.491211 58.2651L0.393516 84.4669L119.401 84.9091L119.499 58.7073Z" fill="white"/>
<path d="M21.7237 66.8262C21.6654 66.8775 21.6131 67.0224 21.5671 67.2607C21.521 67.4991 21.3845 68.6072 21.1576 70.5853C20.9371 72.5635 20.8247 74.1455 20.8203 75.3316C20.8183 75.8472 20.8841 76.3986 21.0175 76.9857C21.0622 77.1277 21.0844 77.2277 21.0842 77.2857C21.0829 77.6209 20.972 77.9299 20.7514 78.2127C20.5308 78.4954 20.2624 78.6363 19.946 78.6351C19.733 78.6343 19.4621 78.5269 19.1337 78.3131C18.8117 78.1055 18.6193 77.7503 18.5566 77.2473C18.4938 76.7442 18.464 76.0899 18.467 75.2841C18.4708 74.2593 18.6061 72.6322 18.8726 70.4028C19.1392 68.1734 19.2887 67.0492 19.321 67.03C19.1467 67.0293 18.4266 67.075 17.1607 67.167C15.8884 67.259 15.1554 67.3045 14.9617 67.3038C14.2967 67.3014 13.8354 67.2158 13.5778 67.0473C13.3201 66.8724 13.192 66.6011 13.1934 66.2336C13.1946 65.9049 13.3311 65.654 13.603 65.4811C13.8812 65.308 14.5788 65.2236 15.6958 65.2277C17.5553 65.2346 19.3798 65.119 21.1692 64.8807C23.1848 64.5788 24.7123 64.4297 25.7518 64.4335C26.914 64.4379 27.6204 64.5791 27.8713 64.8572C28.1221 65.1289 28.2469 65.4001 28.2459 65.6708C28.2437 66.296 27.9648 66.6077 27.4096 66.6056C27.2288 66.6049 26.9383 66.5845 26.5382 66.5443C26.1315 66.5106 25.657 66.4928 25.1146 66.4907C23.4811 66.4846 22.3508 66.5965 21.7237 66.8262ZM37.1857 72.2886C37.3093 72.0506 37.8321 71.1984 38.7545 69.7322L38.9592 69.4041C39.9205 67.8349 40.7126 66.6647 41.3354 65.8936C41.9645 65.1224 42.4247 64.6599 42.7158 64.5063C43.0134 64.3462 43.3462 64.2669 43.7142 64.2683C44.0499 64.2695 44.3047 64.3349 44.4786 64.4645C44.659 64.5876 44.7483 64.8523 44.7468 65.2584C44.7455 65.6129 44.3981 66.1305 43.7047 66.8112C42.6355 67.8515 41.0713 70.0566 39.0119 73.4267C37.7841 75.4333 36.8947 76.7546 36.3435 77.3908C35.7922 78.0268 35.1545 78.5112 34.4301 78.8437C33.7122 79.1761 33.0175 79.3412 32.346 79.3387C31.5841 79.3358 30.9488 79.1627 30.4399 78.8192C29.9376 78.4821 29.6874 78.0589 29.6893 77.5497C29.691 77.0792 29.8662 76.8445 30.2149 76.8458C30.3827 76.8464 30.6568 76.9345 31.0371 77.11C31.411 77.2919 31.7302 77.3833 31.9949 77.3842C32.9311 77.3877 33.7495 76.9686 34.4499 76.1267C35.1504 75.2849 35.5012 74.7093 35.5024 74.3999C35.5037 74.026 34.7664 72.6245 33.2905 70.1953C32.2252 68.451 31.536 67.1334 31.2229 66.2427C30.9099 65.3455 30.7537 64.7938 30.7545 64.5875C30.7553 64.362 30.9306 64.1273 31.2801 63.8837C31.6297 63.6336 31.8981 63.5089 32.0853 63.5096C32.3114 63.5104 32.5435 63.5886 32.7818 63.7442C33.0201 63.8934 33.1743 64.1163 33.2442 64.4131C33.5687 65.7164 34.0902 66.9688 34.8088 68.1705L37.1857 72.2886ZM52.8254 66.468H52.8351C52.7509 66.5193 52.6049 66.7315 52.3969 67.1045C52.215 67.4068 52.0399 67.6253 51.8715 67.7601C51.7031 67.8884 51.4314 68.0325 51.0563 68.1922C50.6813 68.3455 50.3904 68.4218 50.1838 68.421C49.9191 68.42 49.6901 68.3515 49.4969 68.2154C49.3038 68.0729 49.2077 67.8791 49.2085 67.6341C49.2101 67.2217 49.5415 66.6492 50.2029 65.9168C50.8706 65.178 51.8382 64.5402 53.1058 64.0035C54.3798 63.4603 55.6172 63.1909 56.8181 63.1953C57.5025 63.1979 58.0858 63.4966 58.5678 64.0915C59.0498 64.6862 59.2893 65.3898 59.2863 66.202C59.2845 66.6789 59.0434 67.2775 58.5629 67.9977C58.0824 68.7114 57.5184 69.3281 56.8708 69.8478C57.6449 70.0312 58.1959 70.3298 58.5236 70.7435C58.8514 71.1509 59.105 71.5386 59.2844 71.9066C59.4638 72.2683 59.5521 72.8391 59.5492 73.619C59.5431 75.2435 58.7728 76.6297 57.2383 77.7778C55.7038 78.9259 54.3071 79.4976 53.0481 79.493C51.9052 79.4887 50.8184 79.1818 49.7876 78.572C48.7568 77.9623 48.2434 77.1352 48.2473 76.091C48.2484 75.7751 48.343 75.5337 48.5308 75.3668C48.7187 75.1936 48.945 75.1073 49.2097 75.1083C49.4744 75.1093 49.697 75.1778 49.8773 75.3139C50.0576 75.4499 50.2696 75.7021 50.5137 76.0704C50.7899 76.4582 51.1534 76.7786 51.6045 77.0317C52.062 77.2847 52.5102 77.4122 52.9493 77.4137C54.1178 77.4181 55.1237 76.9448 55.9665 75.9939C56.816 75.0367 57.2418 74.2486 57.2441 73.6298C57.2466 72.9724 57.0452 72.4205 56.6401 71.9741C56.2415 71.5215 55.7452 71.294 55.1512 71.2918C54.8219 71.2906 54.4178 71.4213 53.9391 71.6837C53.4085 71.9719 52.94 72.1151 52.5331 72.1137C52.2749 72.1127 51.9783 72.0245 51.6432 71.8492C51.3081 71.6675 51.141 71.4316 51.1421 71.1416C51.1424 71.0577 51.2076 70.9162 51.3374 70.7168C51.4673 70.5111 51.6034 70.3762 51.7457 70.3123C51.8945 70.2419 52.3535 70.0792 53.1228 69.8242C54.0149 69.5375 54.6779 69.2306 55.1117 68.9035C55.552 68.5699 55.9605 68.1137 56.337 67.5349C56.7137 66.9498 56.9029 66.438 56.9045 65.9997C56.9065 65.4776 56.7041 65.2157 56.2973 65.2142C55.303 65.2106 54.1457 65.6285 52.8254 66.468ZM80.3338 69.8094C80.0202 72.5348 79.861 74.539 79.8561 75.8217C79.8553 76.0602 79.9088 76.4278 80.0167 76.9245C80.1182 77.4277 80.1684 77.7889 80.1677 78.008C80.1663 78.3754 80.036 78.665 79.777 78.8768C79.5244 79.0886 79.1753 79.1937 78.7298 79.192C78.2586 79.1903 77.9108 78.9505 77.6865 78.4726C77.4624 77.9883 77.3524 77.1757 77.3567 76.0347C77.3613 74.7842 77.5794 72.5741 78.0109 69.4042L78.0611 68.921C77.9834 69.0045 77.8958 69.1041 77.7985 69.2198C77.3121 69.7981 77.0138 70.1386 76.9038 70.2414L76.9231 70.2318C75.6913 71.6066 74.6736 72.6438 73.8704 73.3435C73.4753 73.6836 72.9765 74.1266 72.374 74.6723C71.7715 75.2179 71.3278 75.5934 71.0429 75.7986C70.2336 76.3886 69.7153 76.8895 69.4878 77.3012C69.0978 77.9895 68.8412 78.3849 68.7182 78.4876H68.7279C68.4814 78.7768 68.0806 78.9204 67.5253 78.9183C66.8409 78.9157 66.5001 78.531 66.503 77.7638C66.5037 77.5834 66.6131 76.8167 66.8312 75.4638C67.0297 74.1819 67.347 71.3371 67.7832 66.9297C67.8906 65.8149 67.9836 65.0998 68.0623 64.7842C68.1474 64.4623 68.3229 64.1632 68.5886 63.8869C68.8609 63.6108 69.1261 63.4732 69.3843 63.4741C69.7782 63.4756 70.094 63.625 70.3318 63.9225C70.576 64.2199 70.6976 64.5233 70.6964 64.8327C70.696 64.9551 70.6366 65.2998 70.5183 65.8666C70.4064 66.4206 70.3372 66.7974 70.3106 66.9971C70.3106 67.0164 70.2475 67.4674 70.1216 68.3501L69.7835 70.6984C69.6584 71.3425 69.5052 72.6182 69.3237 74.5255C69.9068 74.0056 70.9856 73.0073 72.5601 71.5306C72.735 71.3635 72.8483 71.2609 72.9001 71.2224C74.1438 70.157 74.9895 69.3253 75.4373 68.7275C75.4762 68.6761 76.2318 67.7475 77.7042 65.9417C77.8275 65.7938 77.902 65.7007 77.928 65.6621C78.3108 65.1478 78.6286 64.7977 78.8811 64.6117C79.14 64.4193 79.431 64.3237 79.7538 64.3248C80.1024 64.3261 80.3764 64.4497 80.5757 64.6953C80.7813 64.9346 80.8837 65.1929 80.8827 65.47L80.3338 69.8094ZM92.1313 73.6628C92.1879 74.0627 92.173 74.5783 92.0867 75.2097C91.888 76.569 91.7879 77.4324 91.7865 77.7998C91.7853 78.1156 91.6132 78.4083 91.2699 78.6778C90.9332 78.9473 90.5614 79.0813 90.1546 79.0798C89.651 79.0779 89.4008 78.6676 89.4038 77.849C89.4042 77.7523 89.4382 77.2851 89.5059 76.4473L89.6883 74.2726C89.7222 73.8343 89.7961 72.2166 89.9099 69.4195C90.0235 66.6224 90.0811 65.0304 90.0826 64.6437C90.0843 64.186 90.2342 63.8288 90.5321 63.5721C90.8365 63.3089 91.176 63.178 91.5505 63.1794C91.8926 63.1807 92.173 63.3203 92.3915 63.5983C92.61 63.8763 92.7188 64.1442 92.7178 64.4021C92.7123 65.8652 92.5966 67.4796 92.3705 69.2449V69.2352C92.3097 69.9763 92.2785 70.537 92.277 70.9173C93.0669 70.3595 94.1001 69.448 95.3768 68.1829C96.6274 66.9756 97.5602 66.1476 98.1753 65.6986C98.2466 65.6344 98.3405 65.5414 98.4572 65.4193C98.9886 64.8862 99.4998 64.5207 99.9917 64.3228L99.9818 64.3227C100.053 64.2842 100.166 64.2653 100.321 64.2659C100.637 64.2671 100.967 64.3972 101.308 64.6563C101.649 64.9154 101.819 65.1352 101.819 65.3157C101.818 65.4382 101.753 65.5443 101.623 65.6341C101.072 66.2896 100.042 67.243 98.5329 68.4943C96.9591 69.7906 95.7283 70.885 94.8404 71.7777C96.1296 72.3304 97.3708 72.7991 98.5639 73.1839C98.5703 73.184 98.609 73.2002 98.6799 73.2327C99.073 73.4339 99.3144 73.5476 99.4046 73.5738C99.6893 73.6522 100.105 73.8148 100.652 74.0619C101.348 74.3738 102.026 74.6278 102.683 74.8236C103.342 75.013 103.713 75.1078 103.796 75.1081C103.849 74.9987 104.01 74.9445 104.281 74.9455C104.63 74.9468 104.942 75.1252 105.218 75.4809C105.495 75.83 105.633 76.1076 105.632 76.314C105.631 76.6684 105.491 76.9709 105.212 77.2213C104.94 77.4651 104.607 77.5864 104.214 77.5849C103.793 77.5834 103.051 77.4002 101.988 77.0352C100.924 76.6638 100.037 76.3222 99.3283 76.0101C98.2773 75.5549 96.9783 75.0313 95.431 74.4389C93.8836 73.8401 92.9904 73.5403 92.7515 73.5394C92.4932 73.5384 92.2865 73.5796 92.1313 73.6628Z" fill="#679436"/>
<path d="M47.4875 15.5716C45.9085 16.6153 45.4245 18.7868 46.4071 20.4218C47.2004 21.7415 49.5834 24.5428 56.4123 24.453C56.5341 24.4509 56.6533 24.4136 56.7566 24.3453C56.8599 24.2771 56.9433 24.1804 56.9979 24.0659C60.0205 17.6436 58.6383 14.1807 57.845 12.8609C56.8624 11.226 54.7855 10.7474 53.2065 11.7912C51.6275 12.8349 51.4252 15.4752 51.4252 15.4752C51.4252 15.4752 49.0666 14.5278 47.4875 15.5716Z" fill="white" stroke="white" stroke-width="2" stroke-linecap="round" stroke-linejoin="round"/>
<path d="M68.0397 16.6016C67.0842 15.9641 65.8228 16.2494 65.2225 17.2393C64.7379 18.0383 63.8906 20.1368 65.7087 24.0427C65.7414 24.1123 65.7919 24.1711 65.8544 24.2129C65.9169 24.2546 65.9891 24.2774 66.0631 24.2791C70.2064 24.3506 71.6594 22.6562 72.144 21.8571C72.7443 20.8672 72.456 19.5479 71.5004 18.9105C70.545 18.273 69.1114 18.8422 69.1114 18.8422C69.1114 18.8422 68.9952 17.239 68.0397 16.6016Z" fill="white" stroke="white" stroke-width="2" stroke-linecap="round" stroke-linejoin="round"/>
</g>
<defs>
<clipPath id="clip0_275_28">
<rect width="120" height="100" fill="white"/>
</clipPath>
</defs>
</svg>
