<svg width="135" height="135" viewBox="0 0 135 135" fill="none" xmlns="http://www.w3.org/2000/svg">
<g clip-path="url(#clip0_200_4)">
<path d="M134.868 62.3584C134.868 62.0068 134.824 61.6553 134.736 61.3037C134.648 60.9521 134.539 60.6006 134.407 60.249C134.275 59.8975 134.121 59.5679 133.945 59.2603C133.77 58.9526 133.55 58.667 133.286 58.4033L133.154 58.2715C132.979 58.0078 132.759 57.7441 132.495 57.4805L131.704 56.6895L109.688 34.541V20.9619C109.688 19.8193 109.27 18.8306 108.435 17.9956C107.6 17.1606 106.611 16.7432 105.469 16.7432H92.1533L76.7285 3.55957C75.7617 2.59277 74.6851 1.82373 73.4985 1.25244C72.312 0.681152 71.0596 0.307617 69.7412 0.131836C68.4229 -0.0439453 67.1045 -0.0439453 65.7861 0.131836C64.4678 0.307617 63.2153 0.681152 62.0288 1.25244C60.8423 1.82373 59.7656 2.59277 58.7988 3.55957L43.5059 16.7432H29.5312C28.3887 16.7432 27.3999 17.1606 26.5649 17.9956C25.73 18.8306 25.3125 19.8193 25.3125 20.9619V34.8047L3.82324 56.2939C1.27441 57.9639 0 60.3369 0 63.4131V126.562C0 128.936 0.834961 130.935 2.50488 132.561C4.1748 134.187 6.15234 135 8.4375 135H126.562C128.057 135 129.463 134.626 130.781 133.879C132.1 133.132 133.132 132.1 133.879 130.781C134.626 129.463 135 128.057 135 126.562V63.0176L134.868 62.3584ZM35.4639 95.7129L8.4375 120.762V71.8506L35.4639 95.7129ZM43.6377 99.668C44.165 99.4043 44.6484 99.0088 45.0879 98.4814C45.1758 98.3936 45.2637 98.2837 45.3516 98.1519C45.4395 98.02 45.5273 97.8662 45.6152 97.6904L63.8086 80.8154C64.7754 80.0244 65.874 79.6289 67.1045 79.6289C68.335 79.6289 69.3896 79.9805 70.2686 80.6836L120.894 126.562H14.502L43.6377 99.668ZM99.9316 96.2402L126.562 72.6416V120.234L99.9316 96.2402ZM118.389 54.9756H118.257L125.508 62.2266L109.688 76.333V46.2744L118.389 54.9756ZM64.7314 9.49219C65.6104 8.70117 66.6211 8.30566 67.7637 8.30566C68.291 8.30566 68.8184 8.41553 69.3457 8.63525C69.873 8.85498 70.3564 9.14062 70.7959 9.49219L79.2334 16.7432H56.2939L64.7314 9.49219ZM101.25 25.1807V83.8477L93.7354 90.5713L75.6738 74.2236C75.1465 73.7842 74.5752 73.3887 73.96 73.0371C73.3447 72.6855 72.7295 72.3999 72.1143 72.1802C71.499 71.9604 70.8618 71.7627 70.2026 71.5869C69.5435 71.4111 68.8623 71.3013 68.1592 71.2573C67.4561 71.2134 66.7749 71.2134 66.1157 71.2573C65.4565 71.3013 64.7754 71.4111 64.0723 71.5869C63.3691 71.7627 62.71 71.9824 62.0947 72.2461C61.4795 72.5098 60.8423 72.8174 60.1831 73.1689C59.5239 73.5205 58.9307 73.916 58.4033 74.3555L41.6602 89.9121L33.75 82.9248V25.1807H101.25ZM13.7109 58.4033L25.3125 46.8018V75.4102L9.8877 61.8311L13.4473 58.4033H13.7109Z" fill="#393939"/>
</g>
<defs>
<clipPath id="clip0_200_4">
<rect width="135" height="135" fill="white"/>
</clipPath>
</defs>
</svg>
