<svg width="61" height="51" viewBox="0 0 61 51" fill="none" xmlns="http://www.w3.org/2000/svg">
<path d="M29.9672 50.6056C43.3303 50.6555 54.2053 39.3922 54.2571 25.4485C54.3089 11.5048 43.518 0.160789 30.1549 0.110966C16.7918 0.061142 5.91681 11.3244 5.86499 25.2681C5.81317 39.2118 16.6041 50.5558 29.9672 50.6056Z" fill="#679436"/>
<path d="M30.4151 14.301C30.4748 14.2392 30.574 14.2396 30.6332 14.3018L42.2072 26.4599C42.2991 26.5566 42.2304 26.7164 42.0971 26.716L18.8592 26.6293C18.726 26.6288 18.6584 26.4684 18.7512 26.3725L30.4151 14.301Z" fill="white"/>
<path d="M39.8631 26.3263L20.719 26.2549L20.6695 39.5722L39.8136 39.6435L39.8631 26.3263Z" fill="white"/>
<path d="M37.2227 30.1017L30.3095 30.0759L30.3033 31.7406L37.2165 31.7664L37.2227 30.1017Z" fill="#29B327"/>
<path d="M60.7452 29.9406L0.249756 29.7151L0.200094 43.078L60.6955 43.3036L60.7452 29.9406Z" fill="white"/>
<path d="M11.0429 34.0813C11.0132 34.1075 10.9867 34.1814 10.9633 34.3029C10.9398 34.4245 10.8705 34.9896 10.7551 35.9985C10.643 37.0073 10.5859 37.8142 10.5837 38.4191C10.5826 38.682 10.6161 38.9632 10.6839 39.2627C10.7066 39.3351 10.7179 39.3861 10.7178 39.4157C10.7171 39.5866 10.6608 39.7442 10.5486 39.8884C10.4365 40.0326 10.3 40.1045 10.1392 40.1039C10.0309 40.1035 9.89324 40.0487 9.72628 39.9396C9.56258 39.8338 9.46478 39.6526 9.43292 39.3961C9.40101 39.1395 9.38589 38.8058 9.3874 38.3949C9.38931 37.8722 9.45808 37.0424 9.59359 35.9054C9.7291 34.7684 9.80507 34.195 9.82151 34.1852C9.73288 34.1849 9.36683 34.2082 8.72336 34.2551C8.0766 34.302 7.704 34.3253 7.60554 34.3249C7.26747 34.3237 7.033 34.28 6.90203 34.1941C6.77105 34.1049 6.70592 33.9665 6.70662 33.7791C6.70723 33.6115 6.77665 33.4835 6.91483 33.3953C7.05629 33.307 7.4109 33.264 7.9787 33.2661C8.92395 33.2696 9.8514 33.2106 10.761 33.0891C11.7856 32.9351 12.5621 32.8591 13.0905 32.8611C13.6813 32.8633 14.0404 32.9353 14.1679 33.0771C14.2954 33.2157 14.3588 33.354 14.3583 33.492C14.3572 33.8109 14.2154 33.9699 13.9332 33.9688C13.8413 33.9685 13.6936 33.9581 13.4902 33.9376C13.2835 33.9203 13.0423 33.9113 12.7666 33.9102C11.9362 33.9071 11.3616 33.9642 11.0429 34.0813ZM18.9027 36.8671C18.9656 36.7457 19.2313 36.3111 19.7002 35.5634L19.8042 35.3961C20.2929 34.5958 20.6956 33.999 21.0121 33.6057C21.332 33.2124 21.5659 32.9765 21.7138 32.8982C21.8651 32.8165 22.0343 32.7761 22.2214 32.7768C22.392 32.7774 22.5216 32.8108 22.6099 32.8769C22.7016 32.9396 22.7471 33.0746 22.7463 33.2817C22.7456 33.4625 22.569 33.7265 22.2166 34.0737C21.673 34.6042 20.8779 35.7288 19.8311 37.4476C19.2069 38.4709 18.7548 39.1448 18.4746 39.4692C18.1944 39.7936 17.8702 40.0407 17.502 40.2102C17.137 40.3798 16.7839 40.464 16.4425 40.4627C16.0553 40.4612 15.7323 40.3729 15.4736 40.1977C15.2183 40.0258 15.0911 39.81 15.0921 39.5503C15.0929 39.3103 15.182 39.1907 15.3592 39.1913C15.4445 39.1916 15.5839 39.2366 15.7772 39.326C15.9672 39.4188 16.1295 39.4654 16.2641 39.4659C16.74 39.4677 17.156 39.2539 17.512 38.8246C17.8681 38.3953 18.0464 38.1017 18.047 37.9439C18.0477 37.7532 17.6729 37.0385 16.9227 35.7996C16.3811 34.91 16.0308 34.238 15.8716 33.7837C15.7125 33.3262 15.6331 33.0448 15.6335 32.9396C15.6339 32.8246 15.723 32.7049 15.9007 32.5806C16.0784 32.4531 16.2149 32.3895 16.31 32.3898C16.4249 32.3902 16.5429 32.4301 16.6641 32.5095C16.7852 32.5856 16.8636 32.6993 16.8991 32.8506C17.0641 33.5153 17.3292 34.154 17.6945 34.7669L18.9027 36.8671ZM26.8529 33.8986H26.8578C26.815 33.9248 26.7408 34.033 26.6351 34.2233C26.5426 34.3774 26.4536 34.4889 26.368 34.5576C26.2824 34.623 26.1443 34.6965 25.9536 34.778C25.763 34.8562 25.6151 34.8951 25.5101 34.8947C25.3755 34.8941 25.2591 34.8592 25.1609 34.7898C25.0627 34.7171 25.0139 34.6183 25.0143 34.4934C25.0151 34.283 25.1836 33.991 25.5198 33.6175C25.8592 33.2407 26.3511 32.9154 26.9954 32.6417C27.643 32.3647 28.2721 32.2273 28.8825 32.2296C29.2304 32.2309 29.5269 32.3832 29.7719 32.6866C30.017 32.9899 30.1387 33.3487 30.1372 33.763C30.1363 34.0062 30.0137 34.3115 29.7695 34.6788C29.5252 35.0428 29.2385 35.3573 28.9093 35.6223C29.3028 35.7159 29.5829 35.8681 29.7495 36.0792C29.9161 36.2869 30.045 36.4846 30.1362 36.6723C30.2274 36.8568 30.2723 37.1479 30.2708 37.5456C30.2677 38.3741 29.8762 39.0811 29.0961 39.6666C28.3161 40.2522 27.6061 40.5437 26.9661 40.5414C26.3851 40.5392 25.8327 40.3827 25.3087 40.0717C24.7847 39.7607 24.5237 39.3389 24.5257 38.8064C24.5263 38.6453 24.5743 38.5222 24.6698 38.437C24.7653 38.3487 24.8804 38.3047 25.0149 38.3052C25.1495 38.3057 25.2626 38.3406 25.3543 38.41C25.4459 38.4794 25.5537 38.608 25.6778 38.7958C25.8182 38.9936 26.003 39.157 26.2323 39.2861C26.4648 39.4152 26.6927 39.4802 26.9159 39.481C27.5099 39.4832 28.0212 39.2418 28.4496 38.7569C28.8814 38.2687 29.0979 37.8667 29.0991 37.5511C29.1003 37.2159 28.998 36.9344 28.7921 36.7068C28.5894 36.4759 28.3371 36.3599 28.0352 36.3588C27.8678 36.3581 27.6624 36.4248 27.419 36.5587C27.1493 36.7056 26.9111 36.7787 26.7043 36.7779C26.5731 36.7774 26.4223 36.7325 26.2519 36.643C26.0816 36.5504 25.9967 36.4301 25.9972 36.2822C25.9974 36.2394 26.0305 36.1672 26.0965 36.0655C26.1625 35.9606 26.2317 35.8918 26.3041 35.8592C26.3797 35.8233 26.613 35.7403 27.0041 35.6103C27.4576 35.4641 27.7946 35.3075 28.0151 35.1407C28.2389 34.9706 28.4466 34.738 28.638 34.4428C28.8295 34.1443 28.9256 33.8833 28.9265 33.6598C28.9275 33.3935 28.8246 33.26 28.6178 33.2592C28.1123 33.2573 27.5241 33.4705 26.8529 33.8986ZM40.8363 35.6027C40.6769 36.9927 40.596 38.0148 40.5935 38.669C40.5931 38.7906 40.6203 38.9781 40.6752 39.2315C40.7267 39.4881 40.7523 39.6723 40.7519 39.784C40.7512 39.9714 40.685 40.1191 40.5533 40.2271C40.4249 40.3351 40.2474 40.3887 40.021 40.3879C39.7814 40.387 39.6046 40.2647 39.4906 40.021C39.3767 39.774 39.3208 39.3596 39.323 38.7777C39.3253 38.1399 39.4362 37.0128 39.6555 35.3961L39.6811 35.1496C39.6415 35.1923 39.597 35.2431 39.5476 35.302C39.3003 35.597 39.1487 35.7706 39.0927 35.8231L39.1026 35.8182C38.4764 36.5193 37.9591 37.0483 37.5508 37.4052C37.3499 37.5786 37.0964 37.8045 36.7901 38.0828C36.4838 38.3611 36.2583 38.5526 36.1135 38.6572C35.7021 38.9581 35.4386 39.2136 35.3229 39.4236C35.1247 39.7746 34.9943 39.9763 34.9317 40.0286H34.9367C34.8114 40.1761 34.6076 40.2493 34.3254 40.2483C33.9775 40.247 33.8042 40.0508 33.8057 39.6595C33.806 39.5675 33.8617 39.1765 33.9725 38.4865C34.0734 37.8327 34.2347 36.3819 34.4564 34.1341C34.511 33.5656 34.5583 33.2008 34.5983 33.0399C34.6416 32.8757 34.7308 32.7232 34.8659 32.5823C35.0043 32.4414 35.1391 32.3713 35.2704 32.3718C35.4706 32.3725 35.6311 32.4487 35.752 32.6004C35.8761 32.7521 35.9379 32.9068 35.9373 33.0646C35.9371 33.1271 35.9069 33.3028 35.8468 33.5919C35.7899 33.8744 35.7547 34.0666 35.7412 34.1685C35.7412 34.1783 35.7092 34.4083 35.6451 34.8585L35.4733 36.0561C35.4097 36.3846 35.3318 37.0352 35.2395 38.008C35.5359 37.7428 36.0843 37.2337 36.8847 36.4805C36.9736 36.3954 37.0312 36.343 37.0576 36.3234C37.6897 35.78 38.1197 35.3559 38.3473 35.051C38.367 35.0248 38.7512 34.5512 39.4996 33.6302C39.5623 33.5548 39.6002 33.5073 39.6134 33.4876C39.808 33.2253 39.9695 33.0468 40.0979 32.9519C40.2295 32.8538 40.3774 32.805 40.5415 32.8056C40.7187 32.8063 40.858 32.8693 40.9593 32.9946C41.0638 33.1166 41.1159 33.2483 41.1154 33.3896L40.8363 35.6027ZM46.8334 37.568C46.8622 37.7719 46.8546 38.0349 46.8107 38.3569C46.7097 39.0501 46.6588 39.4905 46.6581 39.6778C46.6575 39.8389 46.57 39.9882 46.3955 40.1256C46.2244 40.2631 46.0354 40.3314 45.8286 40.3306C45.5726 40.3297 45.4454 40.1204 45.4469 39.7029C45.4471 39.6536 45.4644 39.4154 45.4988 38.9881L45.5915 37.879C45.6088 37.6555 45.6464 36.8304 45.7042 35.4039C45.7619 33.9774 45.7912 33.1654 45.792 32.9682C45.7929 32.7348 45.869 32.5526 46.0205 32.4217C46.1752 32.2875 46.3478 32.2207 46.5382 32.2214C46.7121 32.2221 46.8546 32.2933 46.9657 32.4351C47.0767 32.5769 47.132 32.7135 47.1315 32.845C47.1288 33.5912 47.0699 34.4145 46.955 35.3149V35.3099C46.9241 35.6879 46.9082 35.9738 46.9075 36.1678C47.309 35.8833 47.8342 35.4184 48.4832 34.7732C49.1189 34.1575 49.5931 33.7352 49.9058 33.5062C49.942 33.4735 49.9898 33.4261 50.0491 33.3638C50.3192 33.0919 50.5791 32.9055 50.8291 32.8046L50.8241 32.8045C50.8604 32.7849 50.9179 32.7753 50.9965 32.7756C51.1573 32.7762 51.3247 32.8425 51.4981 32.9747C51.6715 33.1068 51.7577 33.2189 51.7577 33.311C51.7572 33.3734 51.7245 33.4276 51.6584 33.4734C51.3781 33.8076 50.8548 34.2939 50.0876 34.9321C49.2875 35.5931 48.6619 36.1513 48.2105 36.6066C48.8659 36.8884 49.4968 37.1275 50.1033 37.3237C50.1066 37.3238 50.1262 37.332 50.1623 37.3486C50.3621 37.4513 50.4848 37.5092 50.5307 37.5226C50.6754 37.5626 50.8866 37.6455 51.1649 37.7715C51.5188 37.9306 51.8631 38.0601 52.1973 38.16C52.5321 38.2566 52.7206 38.3049 52.763 38.3051C52.7897 38.2493 52.8719 38.2217 53.0095 38.2222C53.187 38.2228 53.3458 38.3138 53.4859 38.4952C53.6266 38.6732 53.6966 38.8148 53.6961 38.9201C53.6956 39.1008 53.6245 39.2551 53.4829 39.3828C53.3442 39.5072 53.1754 39.569 52.9752 39.5683C52.7615 39.5675 52.3844 39.474 51.8439 39.2879C51.303 39.0985 50.8523 38.9243 50.4919 38.7651C49.9576 38.533 49.2973 38.2659 48.5107 37.9638C47.7241 37.6584 47.2701 37.5055 47.1487 37.505C47.0174 37.5045 46.9123 37.5255 46.8334 37.568Z" fill="#679436"/>
<path d="M24.1395 7.94145C23.3369 8.47376 23.0908 9.58122 23.5903 10.415C23.9936 11.0881 25.2049 12.5168 28.6763 12.471C28.7382 12.4699 28.7988 12.4509 28.8513 12.4161C28.9038 12.3813 28.9462 12.3319 28.974 12.2736C30.5105 8.99821 29.8078 7.23209 29.4046 6.55899C28.9051 5.72522 27.8493 5.48112 27.0467 6.01344C26.244 6.54576 26.1412 7.89231 26.1412 7.89231C26.1412 7.89231 24.9422 7.40913 24.1395 7.94145Z" fill="white" stroke="white" stroke-width="2" stroke-linecap="round" stroke-linejoin="round"/>
<path d="M34.5869 8.46681C34.1012 8.14167 33.4599 8.2872 33.1548 8.79205C32.9085 9.19954 32.4777 10.2698 33.4019 12.2618C33.4186 12.2973 33.4442 12.3273 33.476 12.3486C33.5078 12.3698 33.5445 12.3815 33.5821 12.3823C35.6883 12.4188 36.4269 11.5547 36.6732 11.1471C36.9784 10.6423 36.8318 9.96944 36.3461 9.64435C35.8604 9.31921 35.1316 9.60951 35.1316 9.60951C35.1316 9.60951 35.0726 8.79189 34.5869 8.46681Z" fill="white" stroke="white" stroke-width="2" stroke-linecap="round" stroke-linejoin="round"/>
</svg>
