<svg width="31" height="31" viewBox="0 0 31 31" fill="none" xmlns="http://www.w3.org/2000/svg">
<ellipse cx="15.5001" cy="15.5002" rx="15.4999" ry="15.5001" fill="#FF8C42"/>
<path d="M17.4999 15.3959L13.8541 17.4792V13.3125L17.4999 15.3959Z" fill="black" stroke="black" stroke-width="1.5625" stroke-linecap="round" stroke-linejoin="round"/>
<path d="M4.99988 16.1322V14.6582C4.99988 11.6425 4.99988 10.1342 5.94259 9.16436C6.88634 8.19351 8.37176 8.15184 11.3416 8.06747C12.7478 8.02788 14.1853 7.99976 15.4166 7.99976C16.6468 7.99976 18.0843 8.02788 19.4916 8.06747C22.4614 8.15184 23.9468 8.19351 24.8895 9.16436C25.8333 10.1342 25.8333 11.6436 25.8333 14.6582V16.1322C25.8333 19.149 25.8333 20.6563 24.8905 21.6271C23.9468 22.597 22.4624 22.6397 19.4916 22.723C18.0853 22.7636 16.6478 22.7917 15.4166 22.7917C14.1864 22.7917 12.7489 22.7636 11.3416 22.723C8.37176 22.6397 6.88634 22.598 5.94259 21.6271C4.99988 20.6563 4.99988 19.1479 4.99988 16.1333V16.1322Z" stroke="black" stroke-width="1.5625"/>
</svg>
